<svg xmlns="http://www.w3.org/2000/svg" version="1.1" xmlns:xlink="http://www.w3.org/1999/xlink" xmlns:svgjs="http://svgjs.dev/svgjs" width="1000" height="404" viewBox="0 0 1000 404"><g transform="matrix(1,0,0,1,-0.6060397146360401,-0.4142453735435083)"><svg viewBox="0 0 396 160" data-background-color="#ffffff" preserveAspectRatio="xMidYMid meet" height="404" width="1000" xmlns="http://www.w3.org/2000/svg" xmlns:xlink="http://www.w3.org/1999/xlink"><g id="tight-bounds" transform="matrix(1,0,0,1,0.2399917269958678,0.16405757368059426)"><svg viewBox="0 0 395.52 159.6718848526388" height="159.6718848526388" width="395.52"><g><svg viewBox="0 0 395.52 159.6718848526388" height="159.6718848526388" width="395.52"><g><svg viewBox="0 0 395.52 159.6718848526388" height="159.6718848526388" width="395.52"><g id="textblocktransform"><svg viewBox="0 0 395.52 159.6718848526388" height="159.6718848526388" width="395.52" id="textblock"><g><svg viewBox="0 0 395.52 159.6718848526388" height="159.6718848526388" width="395.52"><g transform="matrix(1,0,0,1,0,0)"><svg width="395.52" viewBox="4 -29.450000762939453 72.94999694824219 29.450000762939453" height="159.6718848526388" data-palette-color="#353c4e"><g class="wordmark-text-0" data-fill-palette-color="primary" id="text-0"><path d="M27.2 0L4.5 0 4.5-25.4 4-29.4 27.2-29.4Q33.25-29.4 36.27-27 39.3-24.6 39.3-19.5L39.3-19.5 39.3-9.95Q39.3-4.75 36.3-2.38 33.3 0 27.2 0L27.2 0ZM14.25-22.6L14.25-6.9 25.7-6.9Q29.55-6.9 29.6-10.45L29.6-10.45 29.6-19.1Q29.6-20.55 28.75-21.58 27.9-22.6 25.7-22.6L25.7-22.6 14.25-22.6ZM64.9 0L55.2 0 55.2-22.65 43.3-22.65 43.3-29.45 76.95-29.45 76.95-22.65 64.9-22.65 64.9 0Z" fill="#353c4e" data-fill-palette-color="primary"></path></g></svg></g></svg></g></svg></g></svg></g></svg></g><defs></defs></svg><rect width="395.52" height="159.6718848526388" fill="none" stroke="none" visibility="hidden"></rect></g></svg></g></svg>